<svg width="132" height="126" viewBox="0 0 132 126" fill="none" xmlns="http://www.w3.org/2000/svg">
<path d="M93.5468 110.224L38.5468 110.274C26.4468 110.284 16.5385 100.845 16.5248 89.2946L16.4725 36.7946C16.4615 25.2446 26.3505 15.7868 38.4505 15.7736L93.4505 15.7238C105.551 15.7133 115.459 25.1528 115.473 36.7028L115.525 89.2028C115.539 100.755 105.647 110.213 93.5468 110.224Z" fill="url(#paint0_radial_130_155)"/>
<path d="M93.5468 110.224L38.5468 110.274C26.4468 110.284 16.5385 100.845 16.5248 89.2946L16.4725 36.7946C16.4615 25.2446 26.3505 15.7868 38.4505 15.7736L93.4505 15.7238C105.551 15.7133 115.459 25.1528 115.473 36.7028L115.525 89.2028C115.539 100.755 105.647 110.213 93.5468 110.224Z" fill="url(#paint1_radial_130_155)"/>
<path d="M66 81.375C55.3877 81.375 46.75 73.1325 46.75 63C46.75 52.8675 55.3877 44.625 66 44.625C76.6123 44.625 85.25 52.8675 85.25 63C85.25 73.1325 76.6123 81.375 66 81.375ZM66 49.875C58.4183 49.875 52.25 55.7629 52.25 63C52.25 70.2371 58.4183 76.125 66 76.125C73.5817 76.125 79.75 70.2371 79.75 63C79.75 55.7629 73.5817 49.875 66 49.875Z" fill="white"/>
<path d="M86.625 47.25C88.9032 47.25 90.75 45.4871 90.75 43.3125C90.75 41.1379 88.9032 39.375 86.625 39.375C84.3468 39.375 82.5 41.1379 82.5 43.3125C82.5 45.4871 84.3468 47.25 86.625 47.25Z" fill="white"/>
<path d="M82.5 97.125H49.5C38.8877 97.125 30.25 88.8825 30.25 78.75V47.25C30.25 37.1175 38.8877 28.875 49.5 28.875H82.5C93.1123 28.875 101.75 37.1175 101.75 47.25V78.75C101.75 88.8825 93.1123 97.125 82.5 97.125ZM49.5 34.125C41.9183 34.125 35.75 40.0129 35.75 47.25V78.75C35.75 85.9871 41.9183 91.875 49.5 91.875H82.5C90.0817 91.875 96.25 85.9871 96.25 78.75V47.25C96.25 40.0129 90.0817 34.125 82.5 34.125H49.5Z" fill="white"/>
<defs>
<radialGradient id="paint0_radial_130_155" cx="0" cy="0" r="1" gradientUnits="userSpaceOnUse" gradientTransform="translate(53.295 110.342) scale(123.472 117.86)">
<stop stop-color="#FFDD55"/>
<stop offset="0.328" stop-color="#FF543F"/>
<stop offset="0.348" stop-color="#FC5245"/>
<stop offset="0.504" stop-color="#E64771"/>
<stop offset="0.643" stop-color="#D53E91"/>
<stop offset="0.761" stop-color="#CC39A4"/>
<stop offset="0.841" stop-color="#C837AB"/>
</radialGradient>
<radialGradient id="paint1_radial_130_155" cx="0" cy="0" r="1" gradientUnits="userSpaceOnUse" gradientTransform="translate(32.4115 14.5433) scale(81.9858 52.1441)">
<stop stop-color="#4168C9"/>
<stop offset="0.999" stop-color="#4168C9" stop-opacity="0"/>
</radialGradient>
</defs>
</svg>
